<svg width="12" height="12" viewBox="0 0 12 12" fill="none" xmlns="http://www.w3.org/2000/svg">
<path d="M5.48378 9.4281L9.79836 5.11352C9.21113 4.86914 8.51564 4.46767 7.85788 3.8099C7.20001 3.15203 6.79847 2.45641 6.5541 1.86914L2.23947 6.18378C1.90279 6.5205 1.73441 6.68887 1.58964 6.87444C1.41884 7.09344 1.27242 7.33034 1.15295 7.58102C1.05167 7.79354 0.976382 8.01943 0.825801 8.47113L0.0317644 10.8533C-0.0423359 11.0756 0.0155174 11.3206 0.181213 11.4864C0.346909 11.652 0.591996 11.7099 0.814297 11.6358L3.19641 10.8417C3.64814 10.6912 3.87402 10.6159 4.08653 10.5146C4.33721 10.3952 4.57413 10.2487 4.79312 10.0779C4.97869 9.93313 5.14711 9.76477 5.48378 9.4281Z" fill="#62A267"/>
<path d="M10.9954 3.91623C11.8913 3.02034 11.8913 1.56781 10.9954 0.671921C10.0995 -0.223974 8.64698 -0.223974 7.7511 0.671921L7.23364 1.1894C7.24076 1.2108 7.24805 1.23249 7.25569 1.25446C7.44535 1.80117 7.80325 2.51785 8.47646 3.19107C9.14968 3.86429 9.86635 4.22217 10.4131 4.41184C10.435 4.41943 10.4566 4.42675 10.4778 4.4338L10.9954 3.91623Z" fill="#62A267"/>
</svg>
