<svg width="23" height="25" viewBox="0 0 23 25" fill="none" xmlns="http://www.w3.org/2000/svg">
<path fill-rule="evenodd" clip-rule="evenodd" d="M11.2564 4.29565H2.70587C1.21088 4.29565 0 5.57959 0 7.16117V21.4861C0 23.069 1.21088 24.3516 2.70587 24.3516H17.5882C19.0832 24.3516 20.2941 23.069 20.2941 21.4861V11.0008L14.9987 16.6074C14.5362 17.1019 13.934 17.4436 13.2723 17.5869L9.64508 18.3554C7.27745 18.856 5.19122 16.6466 5.66475 14.141L6.38992 10.3C6.52115 9.60728 6.84315 8.97005 7.31533 8.47082L11.2578 4.29565H11.2564Z" fill="#62A267"/>
<path fill-rule="evenodd" clip-rule="evenodd" d="M22.7916 1.78187C22.6563 1.43479 22.4556 1.11694 22.2003 0.845642C21.9503 0.579681 21.6494 0.366663 21.3155 0.219233C20.9863 0.0746529 20.6306 0 20.2711 0C19.9115 0 19.5558 0.0746529 19.2266 0.219233C18.8927 0.366663 18.5918 0.579681 18.3418 0.845642L17.6031 1.62764L21.4616 5.71351L22.2003 4.93016C22.4558 4.65902 22.6566 4.34113 22.7916 3.99393C23.0698 3.28281 23.0698 2.49299 22.7916 1.78187ZM19.5499 7.73885L15.69 3.65163L9.22704 10.4975C9.13169 10.5991 9.06737 10.7258 9.04169 10.8628L8.31651 14.7051C8.22181 15.2057 8.63986 15.6468 9.11204 15.5467L12.7406 14.7795C12.8729 14.7507 12.9932 14.6823 13.0856 14.5834L19.5499 7.73885Z" fill="#62A267"/>
</svg>
